####
#
#	OBJ File Generated by LightWave3D
#	LightWave3D OBJ Export v2.3
#
####
o isl_CampaignRoad_Turn_01.obj
mtllib isl_CampaignRoad_Turn_01.mtl
g default
v -5 0.25 5
v 5 0.25 5
v -5 0.25 -5
v 5 0.25 -5
v 0.438464 0 -1.32123
v 1.61844 -2.04827e-008 -0.64596
v -0.678359 -5.66357e-009 -2.3611
v -2.13056 0 -2.70484
v -3.62103 7.34511e-011 -2.933
v -5 0 -3
v 2.16178 0 0.819503
v 2.58117 5.87301e-008 2.30726
v 3 0 3.61443
v 3 0 5
v -3.43264 0 3.84257
v -3.69717 7.61115e-009 3.44758
v -4.23396 1.00304e-008 3.2922
v -3.16417 0 4.25848
v -5 0 3
v -3 0 5
vt 0.02 0.695
vt 0.63 0.38
vn -0.0441773 0.999015 0.00420611
vn 0.0385912 0.999125 -0.0161304
vn 0.0621199 0.997974 -0.0137533
vn -0.0621374 0.998068 -0
vn 0.0105709 0.999445 -0.03159
vn -0.00432987 0.998766 0.0494806
vn -0.00301922 0.998063 0.0621366
vn 0.0236816 0.99779 -0.0620853
vn -0.0441773 0.999015 0.00420611
vn -0.0270523 0.999601 0.00813101
vn 0.0385912 0.999125 -0.0161304
vn -0.00652771 0.999398 0.0340834
vn -0.00432987 0.998766 0.0494806
vn 0.0105709 0.999445 -0.03159
vn -0.0110464 0.999662 0.023547
vn -0.00652771 0.999398 0.0340834
vn 0.0105709 0.999445 -0.03159
vn -0.0130196 0.999757 0.0178099
vn -0.0110464 0.999662 0.023547
vn 0.0105709 0.999445 -0.03159
vn -0.0270523 0.999601 0.00813101
vn -0.0264343 0.999614 0.0085623
vn 0.0385912 0.999125 -0.0161304
vn -0.0121193 0.999879 0.00970882
vn 0.0533561 0.997959 -0.0350828
vn 0.0385912 0.999125 -0.0161304
vn -0.0264343 0.999614 0.0085623
vn -0.0121193 0.999879 0.00970882
vn 0.0358411 0.998109 -0.0499426
vn 0.0533561 0.997959 -0.0350828
vn -0.0121193 0.999879 0.00970882
vn 0.0105709 0.999445 -0.03159
vn 0.0358411 0.998109 -0.0499426
vn -0.0121193 0.999879 0.00970882
vn -0.0130196 0.999757 0.0178099
vn 0.0105709 0.999445 -0.03159
vn -0.124035 0.992278 -0
vn -0.0407576 0.998262 0.0425581
vn -0.0441773 0.999015 0.00420611
vn -0.0621374 0.998068 -0
vn -0.00432987 0.998766 0.0494806
vn -0.0407576 0.998262 0.0425581
vn -0.00602673 0.99226 0.124032
vn -0.00301922 0.998063 0.0621366
vn -0.0130196 0.999757 0.0178099
vn -0.0121193 0.999879 0.00970882
vn -0.0407576 0.998262 0.0425581
vn -0.0264343 0.999614 0.0085623
vn -0.0270523 0.999601 0.00813101
vn -0.0407576 0.998262 0.0425581
vn -0.00652771 0.999398 0.0340834
vn -0.0110464 0.999662 0.023547
vn -0.0407576 0.998262 0.0425581
vn -0.0270523 0.999601 0.00813101
vn -0.0441773 0.999015 0.00420611
vn -0.0407576 0.998262 0.0425581
vn -0.00432987 0.998766 0.0494806
vn -0.00652771 0.999398 0.0340834
vn -0.0407576 0.998262 0.0425581
vn -0.0110464 0.999662 0.023547
vn -0.0130196 0.999757 0.0178099
vn -0.0407576 0.998262 0.0425581
vn -0.0121193 0.999879 0.00970882
vn -0.0264343 0.999614 0.0085623
vn -0.0407576 0.998262 0.0425581
vn 0.0105709 0.999445 -0.03159
vn 0.0236816 0.99779 -0.0620853
vn 0.0843928 0.99288 -0.0840706
vn 0.0621199 0.997974 -0.0137533
vn 0.0385912 0.999125 -0.0161304
vn 0.0843928 0.99288 -0.0840706
vn 0.0358411 0.998109 -0.0499426
vn 0.0105709 0.999445 -0.03159
vn 0.0843928 0.99288 -0.0840706
vn 0.0533561 0.997959 -0.0350828
vn 0.0358411 0.998109 -0.0499426
vn 0.0843928 0.99288 -0.0840706
vn 0.0385912 0.999125 -0.0161304
vn 0.0533561 0.997959 -0.0350828
vn 0.0843928 0.99288 -0.0840706
g isl_CampaignRoad_Turn_01
usemtl isl_CampaignRoad_Turn_01
s 1
f 13/1/1 18/1/2 20/1/3 14/1/4
f 17/1/5 9/1/6 10/1/7 19/1/8
f 13/1/9 12/1/10 18/1/11
f 8/1/12 9/1/13 17/1/14
f 7/1/15 8/1/16 17/1/17
f 5/1/18 7/1/19 17/1/20
f 12/1/21 11/1/22 18/1/23
f 6/1/24 15/1/25 18/1/26 11/1/27
f 6/1/28 16/1/29 15/1/30
f 6/1/31 17/1/32 16/1/33
f 6/1/34 5/1/35 17/1/36
f 2/2/37 4/2/38 13/2/39 14/2/40
f 9/2/41 4/2/42 3/2/43 10/2/44
f 5/2/45 6/2/46 4/2/47
f 11/2/48 12/2/49 4/2/50
f 8/2/51 7/2/52 4/2/53
f 12/2/54 13/2/55 4/2/56
f 9/2/57 8/2/58 4/2/59
f 7/2/60 5/2/61 4/2/62
f 6/2/63 11/2/64 4/2/65
f 17/2/66 19/2/67 1/2/68
f 20/2/69 18/2/70 1/2/71
f 16/2/72 17/2/73 1/2/74
f 15/2/75 16/2/76 1/2/77
f 18/2/78 15/2/79 1/2/80
