####
#
#	OBJ File Generated by LightWave3D
#	LightWave3D OBJ Export v2.3
#
####
o isl_CampaignRoad_LineWhite_01.obj
mtllib isl_CampaignRoad_LineWhite_01.mtl
g default
v -5 0.25 5
v 5 0.25 5
v 5 0.25 -5
v -5 0.25 -0
v 5 0.25 -0
v -5 0.25 2.5
v 5 0.25 2.5
v -5 0.25 -2.5
v 5 0.25 -2.5
v -5 0.25 -1.25
v 5 0.25 -1.25
v 5 0.25 1.25
v -5 0.25 1.25
v -5 0.25 3.75
v 5 0.25 3.75
v -5 0.25 -3.75
v 5 0.25 -3.75
v -5 0.25 -5
v 3 0 -3.75
v 3 0 -5
v -2.62388 0 -3.75
v -3 0 -5
v 2.62388 0 -1.25
v 2.62388 0 -2.5
v -2.69809 0 -1.25
v -2.62388 0 -2.5
v 3 0 1.25
v 2.69809 0 -0
v -2.62388 0 1.25
v -3 0 -0
v 2.62388 0 3.75
v 3.14032 0 2.5
v 3 0 5
v -3 0 3.75
v -3.14032 0 2.5
v -3 0 5
v -0.15 0.0210153 -3.75
v -0.15 0.0210153 -1.25
v -0.15 0.0210153 1.25
v -0.15 0.0210153 3.75
v 0.15 0.0210153 -1.25
v 0.15 0.0210153 -3.75
v 0.15 0.0210153 3.75
v 0.15 0.0210153 1.25
vt 0.02 0.695
vt 0.035 0.943
vt 0.63 0.38
vn -0.05239 0.998627 -0
vn -0.0572631 0.998359 -0
vn 0.0532271 0.998582 -0
vn 0.0540586 0.998516 0.00652725
vn 0.0540586 0.998516 0.00652725
vn 0.0532213 0.998561 0.00652696
vn -0.0572539 0.998332 0.00749926
vn -0.05239 0.998627 -0
vn 0.0523747 0.998569 0.0108143
vn 0.0572486 0.998301 0.0108174
vn -0.0572486 0.998301 -0.0108174
vn -0.0621287 0.99804 0.00750127
vn -0.0621287 0.99804 0.00750127
vn -0.0572539 0.998332 0.00749926
vn 0.0532213 0.998561 0.00652696
vn 0.0523747 0.998569 0.0108143
vn -0.0523747 0.998569 -0.0108143
vn -0.0572486 0.998301 -0.0108174
vn 0.0572486 0.998301 0.0108174
vn 0.0621374 0.998068 -0
vn 0.0621374 0.998068 -0
vn 0.0621374 0.998068 -0
vn -0.05239 0.998627 -0
vn -0.0523747 0.998569 -0.0108143
vn 0.05239 0.998627 -0
vn 0.0532271 0.998582 -0
vn -0.0572631 0.998359 -0
vn -0.0621374 0.998068 -0
vn -0.0621374 0.998068 -0
vn -0.0621374 0.998068 -0
vn 0.05239 0.998627 -0
vn 0.05239 0.998627 -0
vn 0.0540586 0.998516 0.00652725
vn 0.0532271 0.998582 -0
vn 0.106303 0.994334 -0
vn 0.107961 0.99407 0.0130357
vn -0.104636 0.994511 -0
vn -0.114341 0.993442 -0
vn -0.0572631 0.998359 -0
vn -0.05239 0.998627 -0
vn -0.0621287 0.99804 0.00750127
vn -0.0572486 0.998301 -0.0108174
vn -0.114319 0.993209 -0.0216012
vn -0.124021 0.992167 0.014974
vn -0.124021 0.992167 0.014974
vn -0.114326 0.99333 0.0149747
vn -0.0572539 0.998332 0.00749926
vn -0.0621287 0.99804 0.00750127
vn 0.104612 0.994278 0.0216001
vn 0.114319 0.993209 0.0216012
vn 0.0572486 0.998301 0.0108174
vn 0.0523747 0.998569 0.0108143
vn 0.0523747 0.998569 0.0108143
vn 0.0532213 0.998561 0.00652696
vn 0.106294 0.994249 0.0130357
vn 0.104612 0.994278 0.0216001
vn 0.0621374 0.998068 -0
vn 0.0572486 0.998301 0.0108174
vn 0.114319 0.993209 0.0216012
vn 0.124035 0.992278 -0
vn 0.124035 0.992278 -0
vn 0.124035 0.992278 -0
vn 0.0621374 0.998068 -0
vn 0.0621374 0.998068 -0
vn -0.104612 0.994278 -0.0216001
vn -0.114319 0.993209 -0.0216012
vn -0.0572486 0.998301 -0.0108174
vn -0.0523747 0.998569 -0.0108143
vn -0.0523747 0.998569 -0.0108143
vn -0.05239 0.998627 -0
vn -0.104636 0.994511 -0
vn -0.104612 0.994278 -0.0216001
vn 0.104636 0.994511 -0
vn 0.106303 0.994334 -0
vn 0.0532271 0.998582 -0
vn 0.05239 0.998627 -0
vn -0.0621374 0.998068 -0
vn -0.0572631 0.998359 -0
vn -0.114341 0.993442 -0
vn -0.124035 0.992278 -0
vn -0.124035 0.992278 -0
vn -0.124035 0.992278 -0
vn -0.0621374 0.998068 -0
vn -0.0621374 0.998068 -0
vn -0.05239 0.998627 -0
vn -0.0572539 0.998332 0.00749926
vn -0.114326 0.99333 0.0149747
vn -0.104636 0.994511 -0
vn 0.107961 0.99407 0.0130357
vn 0.106294 0.994249 0.0130357
vn 0.0532213 0.998561 0.00652696
vn 0.0540586 0.998516 0.00652725
vn 0.05239 0.998627 -0
vn 0.05239 0.998627 -0
vn 0.104636 0.994511 -0
vn 0.104636 0.994511 -0
vn 0 1 -0
vn 0 1 -0
vn 0 1 -0
vn 0 1 -0
vn 0 1 -0
vn 0 1 -0
vn 0 1 -0
vn 0 1 -0
g isl_CampaignRoad_LineWhite_01
usemtl isl_CampaignRoad_LineWhite_01
s 1
f 23/1/1 24/1/2 26/1/3 25/1/4
f 25/1/5 30/1/6 28/1/7 23/1/8
f 29/1/9 35/1/10 32/1/11 27/1/12
f 27/1/13 28/1/14 30/1/15 29/1/16
f 31/1/17 32/1/18 35/1/19 34/1/20
f 34/1/21 36/1/22 33/1/23 31/1/24
f 21/1/25 26/1/26 24/1/27 19/1/28
f 19/1/29 20/1/30 22/1/31 21/1/32
f 25/3/33 26/3/34 8/3/35 10/3/36
f 11/3/37 9/3/38 24/3/39 23/3/40
f 27/3/41 32/3/42 7/3/43 12/3/44
f 12/3/45 5/3/46 28/3/47 27/3/48
f 13/3/49 6/3/50 35/3/51 29/3/52
f 29/3/53 30/3/54 4/3/55 13/3/56
f 34/3/57 35/3/58 6/3/59 14/3/60
f 14/3/61 1/3/62 36/3/63 34/3/64
f 15/3/65 7/3/66 32/3/67 31/3/68
f 31/3/69 33/3/70 2/3/71 15/3/72
f 16/3/73 8/3/74 26/3/75 21/3/76
f 19/3/77 24/3/78 9/3/79 17/3/80
f 17/3/81 3/3/82 20/3/83 19/3/84
f 23/3/85 28/3/86 5/3/87 11/3/88
f 10/3/89 4/3/90 30/3/91 25/3/92
f 21/3/93 22/3/94 18/3/95 16/3/96
f 38/2/97 41/2/98 42/2/99 37/2/100
f 40/2/101 43/2/102 44/2/103 39/2/104
