####
#
#	OBJ File Generated by LightWave3D
#	LightWave3D OBJ Export v2.3
#
####
o isl_ConcreteRoad_Turn_01.obj
mtllib isl_ConcreteRoad_Turn_01.mtl
g default
v -5 0.25 5
v 5 0.25 5
v 3 0.25 5
v -3 0.25 5
v -3 0 5
v 3 0 5
v -5 0.25 -5
v -5 0.25 -3
v -5 0 -3
v -5 0 3
v -5 0.25 3
v 5 0.25 -5
v -4.19896 0.25 3
v -3.65563 0.25 3.22505
v -3.22505 0.25 3.65563
v -3 0.25 4.19896
v -3 0 4.19896
v -4.19896 0 3
v -3.65563 0 3.22505
v -3.22505 0 3.65563
v 3 0.25 3.61443
v 3 0 3.61443
v -3.61443 0.25 -3
v -3.61443 0 -3
v -2.13056 0 -2.70484
v -0.819503 0 -2.16178
v 0.438464 0.25 -1.32123
v 1.32123 0.25 -0.438464
v 1.32123 0 -0.438464
v 0.438464 0 -1.32123
v 2.16178 0.25 0.819503
v 2.70484 0.25 2.13056
v 2.70484 0 2.13056
v 2.16178 0 0.819503
v -2.13056 0.25 -2.70484
v -0.819503 0.25 -2.16178
vt 0.015 0.65
vt 0.015 0.65
vt 0.03 0.775
vn 0.980785 0 -0.19509
vn 0.980785 0 -0.19509
vn 1 0 -0
vn 1 0 -0
vn 0 0 -1
vn 0.19509 0 -0.980785
vn 0.19509 0 -0.980785
vn 0 0 -1
vn 0.55557 0 -0.83147
vn 0.83147 0 -0.55557
vn 0.83147 0 -0.55557
vn 0.55557 0 -0.83147
vn 0.55557 0 -0.83147
vn 0.19509 0 -0.980785
vn 0.19509 0 -0.980785
vn 0.55557 0 -0.83147
vn 0.83147 0 -0.55557
vn 0.980785 0 -0.19509
vn 0.980785 0 -0.19509
vn 0.83147 0 -0.55557
vn 0 1 -0
vn 0 1 -0
vn 0 1 -0
vn 0 1 -0
vn -1 0 -0
vn -0.995185 0 0.0980172
vn -0.995185 0 0.0980172
vn -1 0 -0
vn 0 1 -0
vn 0 1 -0
vn 0 1 -0
vn 0 1 -0
vn -0.0980172 0 0.995185
vn -0.0980172 0 0.995185
vn 0 0 1
vn 0 0 1
vn 0 1 -0
vn 0 1 -0
vn 0 1 -0
vn 0 1 -0
vn 0 1 -0
vn 0 1 -0
vn 0 1 -0
vn 0 1 -0
vn -0.634393 0 0.77301
vn -0.77301 0 0.634393
vn -0.77301 0 0.634393
vn -0.634393 0 0.77301
vn 0 1 -0
vn 0 1 -0
vn 0 1 -0
vn -0.881921 0 0.471397
vn -0.95694 0 0.290285
vn -0.95694 0 0.290285
vn -0.881921 0 0.471397
vn -0.471397 0 0.881921
vn -0.290285 0 0.95694
vn -0.290285 0 0.95694
vn -0.471397 0 0.881921
vn 0 1 -0
vn 0 1 -0
vn 0 1 -0
vn 0 1 -0
vn 0 1 -0
vn 0 1 -0
vn -0.95694 0 0.290285
vn -0.995185 0 0.0980172
vn -0.995185 0 0.0980172
vn -0.95694 0 0.290285
vn -0.290285 0 0.95694
vn -0.0980172 0 0.995185
vn -0.0980172 0 0.995185
vn -0.290285 0 0.95694
vn -0.471397 0 0.881921
vn -0.634393 0 0.77301
vn -0.634393 0 0.77301
vn -0.471397 0 0.881921
vn -0.881921 0 0.471397
vn -0.77301 0 0.634393
vn -0.77301 0 0.634393
vn -0.881921 0 0.471397
vn 0 1 -0
vn 0 1 -0
vn 0 1 -0
vn 0 1 -0
vn 0 1 -0
vn 0 1 -0
vn 0 1 -0
vn 0 1 -0
vn 0 1 -0
vn 0 1 -0
vn 0 1 -0
vn 0 1 -0
vn 0 1 -0
vn 0 1 -0
vn 0 1 -0
vn 0 1 -0
vn 0 1 -0
vn 0 1 -0
vn 0 1 -0
vn 0 1 -0
vn 0 1 -0
vn 0 1 -0
vn 0 1 -0
vn 0 1 -0
vn 0 1 -0
vn 0 1 -0
vn 0 1 -0
vn 0 1 -0
vn 0 1 -0
vn 0 1 -0
vn 0 1 -0
vn 0 1 -0
vn 0 1 -0
vn 0 1 -0
vn 0 1 -0
vn 0 1 -0
vn 0 1 -0
vn 0 1 -0
vn 0 1 -0
vn 0 1 -0
vn 0 1 -0
vn 0 1 -0
vn 0 1 -0
vn 0 1 -0
vn 0 1 -0
vn 0 1 -0
vn 0 1 -0
vn 0 1 -0
vn 0 1 -0
vn 0 1 -0
vn 0 1 -0
vn 0 1 -0
vn 0 1 -0
vn 0 1 -0
vn 0 1 -0
g isl_ConcreteRoad_LineWhite_01
usemtl isl_ConcreteRoad_LineWhite_01
s 1
f 17/3/1 16/3/2 4/3/3 5/3/4
f 11/3/5 13/3/6 18/3/7 10/3/8
f 14/3/9 15/3/10 20/3/11 19/3/12
f 19/3/13 18/3/14 13/3/15 14/3/16
f 15/3/17 16/3/18 17/3/19 20/3/20
f 21/3/21 3/3/22 2/3/23 12/3/24
f 3/3/25 21/3/26 22/3/27 6/3/28
f 7/3/29 8/3/30 23/3/31 12/3/32
f 24/3/33 23/3/34 8/3/35 9/3/36
f 22/2/37 17/2/38 5/2/39 6/2/40
f 18/2/41 24/2/42 9/2/43 10/2/44
f 30/3/45 29/3/46 28/3/47 27/3/48
f 27/3/49 28/3/50 12/3/51
f 34/3/52 33/3/53 32/3/54 31/3/55
f 36/3/56 35/3/57 25/3/58 26/3/59
f 31/3/60 32/3/61 12/3/62
f 35/3/63 36/3/64 12/3/65
f 33/3/66 22/3/67 21/3/68 32/3/69
f 35/3/70 23/3/71 24/3/72 25/3/73
f 26/3/74 30/3/75 27/3/76 36/3/77
f 31/3/78 28/3/79 29/3/80 34/3/81
f 32/3/82 21/3/83 12/3/84
f 23/3/85 35/3/86 12/3/87
f 36/3/88 27/3/89 12/3/90
f 28/3/91 31/3/92 12/3/93
f 22/1/94 33/1/95 17/1/96
f 25/1/97 24/1/98 18/1/99
f 26/1/100 25/1/101 18/1/102
f 30/1/103 26/1/104 18/1/105
f 33/1/106 34/1/107 17/1/108
f 29/1/109 20/1/110 17/1/111 34/1/112
f 29/1/113 19/1/114 20/1/115
f 29/1/116 18/1/117 19/1/118
f 29/1/119 30/1/120 18/1/121
f 13/3/122 11/3/123 1/3/124
f 16/3/125 1/3/126 4/3/127
f 14/3/128 13/3/129 1/3/130
f 15/3/131 14/3/132 1/3/133
f 16/3/134 15/3/135 1/3/136
