####
#
#	OBJ File Generated by LightWave3D
#	LightWave3D OBJ Export v2.3
#
####
o isl_ConcreteRoad_LineWhite_01.obj
mtllib isl_ConcreteRoad_LineWhite_01.mtl
g default
v -5 0.25 5
v 5 0.25 5
v 5 0.25 -5
v -5 0.25 -5
v 3 0.25 5
v 3 0.25 -5
v -3 0.25 5
v -3 0.25 -5
v 3 0 -5
v -3 0 -5
v -3 0 5
v 3 0 5
v -0.15 0.0210153 -3.75
v -0.15 0.0210153 -1.25
v -0.15 0.0210153 1.25
v -0.15 0.0210153 3.75
v 0.15 0.0210153 -1.25
v 0.15 0.0210153 -3.75
v 0.15 0.0210153 3.75
v 0.15 0.0210153 1.25
vt 0.015 0.65
vt 0.03 0.775
vt 0.035 0.943
vn 0 1 -0
vn 0 1 -0
vn 0 1 -0
vn 0 1 -0
vn -0 1 -0
vn -0 1 -0
vn -0 1 -0
vn -0 1 -0
vn 1 0 -0
vn 1 0 -0
vn 1 0 -0
vn 1 0 -0
vn -1 0 -0
vn -1 0 -0
vn -1 0 -0
vn -1 0 -0
vn 0 1 0
vn 0 1 0
vn 0 1 0
vn 0 1 0
vn -0 1 -0
vn -0 1 -0
vn -0 1 -0
vn -0 1 -0
vn -0 1 -0
vn -0 1 -0
vn -0 1 -0
vn -0 1 -0
g isl_ConcreteRoad_LineWhite_01
usemtl isl_ConcreteRoad_LineWhite_01
s off
f 6/2/1 5/2/2 2/2/3 3/2/4
f 1/2/5 7/2/6 8/2/7 4/2/8
f 10/2/9 8/2/10 7/2/11 11/2/12
f 5/2/13 6/2/14 9/2/15 12/2/16
f 9/1/17 10/1/18 11/1/19 12/1/20
f 14/3/21 17/3/22 18/3/23 13/3/24
f 16/3/25 19/3/26 20/3/27 15/3/28
