####
#
#	OBJ File Generated by LightWave3D
#	LightWave3D OBJ Export v2.3
#
####
o isl_ConcreteRoad_T_01.obj
mtllib isl_ConcreteRoad_T_01.mtl
g default
v -5 0.25 5
v 5 0.25 5
v 3 0.25 5
v -3 0.25 5
v -3 0 5
v 3 0 5
v -5 0 3
v 5 0 3
v 5 0.25 3
v -5 0.25 3
v 3 0.25 4.20782
v 3.22897 0.25 3.65503
v 3.65503 0.25 3.22897
v 4.20782 0.25 3
v -4.20782 0.25 3
v -3.65503 0.25 3.22897
v -3.22897 0.25 3.65503
v -3 0.25 4.20782
v 3.22897 0 3.65503
v 3.65503 0 3.22897
v 4.20782 0 3
v 3 0 4.20782
v -3.65503 0 3.22897
v -3.22897 0 3.65503
v -4.20782 0 3
v -3 0 4.20782
v 3.75 0.0210153 3.35
v 0.25 0.0210153 3.35
v 0.25 0.0210153 3.9
v 3.75 0.0210153 3.9
v -5 0.25 -3
v -5 0 -3
v 5 0.25 -5
v 5 0.25 -3
v 5 0 -3
v 0 0.25 -3
v 0 0 -3
v -5 0.25 -5
vt 0.015 0.65
vt 0.03 0.775
vt 0.035 0.943
vn 0.980785 0 -0.19509
vn 0.980785 0 -0.19509
vn 1 0 -0
vn 1 0 -0
vn -1 0 -0
vn -0.980785 0 -0.19509
vn -0.980785 0 -0.19509
vn -1 0 -0
vn 0 1 -0
vn 0 1 -0
vn 0 1 -0
vn 0 1 -0
vn 0 0 -1
vn 0 0 -1
vn 0.19509 0 -0.980785
vn 0.19509 0 -0.980785
vn -0.19509 0 -0.980785
vn -0.19509 0 -0.980785
vn 0 0 -1
vn 0 0 -1
vn -0.55557 0 -0.83147
vn -0.83147 0 -0.55557
vn -0.83147 0 -0.55557
vn -0.55557 0 -0.83147
vn 0.55557 0 -0.83147
vn 0.83147 0 -0.55557
vn 0.83147 0 -0.55557
vn 0.55557 0 -0.83147
vn -0.83147 0 -0.55557
vn -0.980785 0 -0.19509
vn -0.980785 0 -0.19509
vn -0.83147 0 -0.55557
vn -0.55557 0 -0.83147
vn -0.19509 0 -0.980785
vn -0.19509 0 -0.980785
vn -0.55557 0 -0.83147
vn 0.55557 0 -0.83147
vn 0.19509 0 -0.980785
vn 0.19509 0 -0.980785
vn 0.55557 0 -0.83147
vn 0.83147 0 -0.55557
vn 0.980785 0 -0.19509
vn 0.980785 0 -0.19509
vn 0.83147 0 -0.55557
vn 0 1 -0
vn 0 1 -0
vn 0 1 -0
vn 0 1 -0
vn 0 1 -0
vn 0 1 -0
vn 0 1 -0
vn 0 1 -0
vn 0 1 -0
vn 0 1 -0
vn 0 1 -0
vn 0 1 -0
vn 0 1 -0
vn 0 1 -0
vn 0 1 -0
vn 0 1 -0
vn 0 1 -0
vn 0 1 -0
vn 0 1 -0
vn 0 1 -0
vn 0 1 -0
vn 0 1 -0
vn 0 1 -0
vn 0 1 -0
vn 0 1 -0
vn 0 1 -0
vn 0 1 -0
vn 0 1 -0
vn 0 1 -0
vn 0 1 -0
vn 0 1 -0
vn 0 1 -0
vn 0 1 -0
vn 0 1 -0
vn 0 1 -0
vn 0 1 -0
vn 0 1 -0
vn 0 1 -0
vn 0 1 -0
vn 0 1 -0
vn 0 1 -0
vn 0 0 1
vn 0 0 1
vn 0 0 1
vn 0 0 1
vn 0 0 1
vn 0 0 1
vn 0 0 1
vn 0 0 1
vn 0 1 -0
vn 0 1 -0
vn 0 1 -0
vn 0 1 -0
vn 0 1 -0
vn 0 1 -0
vn 0 1 -0
vn 0 1 -0
vn 0 1 -0
vn 0 1 -0
vn 0 1 -0
vn 0 1 -0
vn 0 1 -0
vn 0 1 -0
vn 0 1 -0
vn 0 1 -0
vn 0 1 -0
vn 0 1 -0
vn 0 1 -0
vn 0 1 -0
vn 0 1 -0
vn 0 1 -0
vn 0 1 -0
vn 0 1 -0
vn 0 1 -0
vn 0 1 -0
vn 0 1 -0
vn 0 1 -0
vn 0 1 -0
g isl_ConcreteRoad_LineWhite_01
usemtl isl_ConcreteRoad_LineWhite_01
s off
f 26/2/1 18/2/2 4/2/3 5/2/4
f 3/2/5 11/2/6 22/2/7 6/2/8
f 22/1/9 26/1/10 5/1/11 6/1/12
f 7/2/13 10/2/14 15/2/15 25/2/16
f 21/2/17 14/2/18 9/2/19 8/2/20
f 20/2/21 19/2/22 12/2/23 13/2/24
f 16/2/25 17/2/26 24/2/27 23/2/28
f 19/2/29 22/2/30 11/2/31 12/2/32
f 13/2/33 14/2/34 21/2/35 20/2/36
f 23/2/37 25/2/38 15/2/39 16/2/40
f 17/2/41 18/2/42 26/2/43 24/2/44
f 19/1/45 24/1/46 26/1/47 22/1/48
f 15/2/49 10/2/50 1/2/51
f 18/2/52 1/2/53 4/2/54
f 16/2/55 15/2/56 1/2/57
f 17/2/58 16/2/59 1/2/60
f 18/2/61 17/2/62 1/2/63
f 9/2/64 14/2/65 2/2/66
f 2/2/67 11/2/68 3/2/69
f 12/2/70 11/2/71 2/2/72
f 13/2/73 12/2/74 2/2/75
f 14/2/76 13/2/77 2/2/78
f 28/3/79 29/3/80 30/3/81 27/3/82
f 31/2/83 36/2/84 38/2/85
f 36/2/86 31/2/87 32/2/88 37/2/89
f 34/2/90 36/2/91 37/2/92 35/2/93
f 33/2/94 38/2/95 36/2/96
f 34/2/97 33/2/98 36/2/99
f 32/1/100 7/1/101 25/1/102 37/1/103
f 37/1/104 21/1/105 8/1/106 35/1/107
f 25/1/108 23/1/109 37/1/110
f 20/1/111 21/1/112 37/1/113
f 20/1/114 37/1/115 19/1/116
f 37/1/117 24/1/118 19/1/119
f 37/1/120 23/1/121 24/1/122
